<?xml version="1.0" standalone="no"?>
<!DOCTYPE svg PUBLIC "-//W3C//DTD SVG 20010904//EN"
 "http://www.w3.org/TR/2001/REC-SVG-20010904/DTD/svg10.dtd">
<svg version="1.0" xmlns="http://www.w3.org/2000/svg"
 width="300.000000pt" height="135.000000pt" viewBox="0 0 300.000000 135.000000"
 preserveAspectRatio="xMidYMid meet">
<metadata>
Created by potrace 1.10, written by Peter Selinger 2001-2011
</metadata>
<g transform="translate(0.000000,135.000000) scale(0.100000,-0.100000)"
fill="#000000" stroke="none">
<path d="M235 899 c-9 -13 20 -27 130 -64 128 -43 446 -125 458 -118 14 8 -4
23 -28 23 -34 0 -178 31 -195 42 -11 6 -6 8 15 4 17 -4 80 -12 142 -20 61 -8
117 -17 123 -21 6 -4 33 -1 60 5 46 11 53 10 102 -14 28 -14 63 -26 77 -26
l26 -1 -25 -20 c-21 -18 -25 -19 -28 -6 -3 13 -9 11 -31 -11 -92 -91 -151
-125 -175 -101 -6 5 -37 9 -71 9 -33 0 -84 6 -112 13 -38 10 -55 11 -64 3 -9
-8 -10 -8 -6 0 10 18 -45 50 -133 77 -47 15 -139 44 -204 66 -66 22 -122 38
-125 36 -11 -12 30 -36 134 -78 245 -100 391 -142 535 -154 100 -8 132 1 193
57 69 63 124 86 262 112 102 19 133 20 420 14 320 -7 416 -11 570 -26 50 -4
155 -7 235 -6 126 1 150 4 185 22 50 26 68 67 39 89 -62 48 -237 72 -399 54
-38 -4 -108 -10 -155 -13 -47 -4 -96 -9 -110 -11 -14 -2 -59 -7 -100 -10 -41
-3 -95 -7 -120 -10 -25 -2 -101 -7 -170 -11 -69 -3 -186 -9 -260 -14 -74 -4
-140 -5 -147 -3 -6 3 -46 -7 -87 -21 l-76 -27 -47 20 c-37 15 -80 21 -183 24
-141 5 -258 25 -518 90 -73 18 -135 30 -137 26z m2127 -84 c18 7 207 12 213 6
3 -2 17 -5 32 -6 16 -1 45 -10 66 -19 46 -19 47 -43 2 -66 -40 -20 -262 -19
-575 3 -129 10 -347 18 -485 18 -237 2 -244 2 -130 11 127 10 437 4 620 -12
337 -29 605 -34 515 -10 -14 4 -30 3 -37 -2 -23 -18 -442 24 -455 45 -6 9 -10
8 -17 -2 -5 -8 -11 -9 -15 -3 -11 17 9 23 101 27 98 5 119 8 130 18 3 4 10 3
13 -3 4 -6 13 -8 22 -5z m-1081 -73 c8 2 17 7 20 12 4 5 15 5 25 1 17 -7 16
-8 -6 -15 -14 -4 -50 -9 -80 -13 -30 -3 -46 -3 -36 0 11 3 26 12 34 20 11 10
17 11 22 3 4 -6 13 -10 21 -8z"/>
<path d="M210 854 c0 -18 283 -114 470 -159 58 -14 111 -28 118 -30 8 -3 12 0
10 7 -2 6 -51 22 -107 34 -106 24 -148 40 -76 30 37 -5 37 -5 10 4 -16 6 -41
8 -53 5 -17 -4 -22 -2 -16 6 5 9 1 10 -14 7 -12 -4 -20 -3 -18 1 3 4 -18 13
-47 21 -29 7 -98 28 -154 46 -102 34 -123 39 -123 28z"/>
<path d="M196 809 c9 -15 66 -38 239 -97 132 -45 333 -102 358 -102 5 0 7 5 5
12 -2 6 -42 19 -89 28 -46 10 -111 26 -144 35 -48 14 -56 19 -40 26 18 7 18 8
2 8 -10 1 -87 24 -171 51 -165 54 -171 55 -160 39z"/>
</g>
</svg>
