<?xml version="1.0" standalone="no"?>
<!DOCTYPE svg PUBLIC "-//W3C//DTD SVG 20010904//EN"
 "http://www.w3.org/TR/2001/REC-SVG-20010904/DTD/svg10.dtd">
<svg version="1.0" xmlns="http://www.w3.org/2000/svg"
 width="925.000000pt" height="270.000000pt" viewBox="0 0 925.000000 270.000000"
 preserveAspectRatio="xMidYMid meet">

<g transform="translate(0.000000,270.000000) scale(0.100000,-0.100000)"
fill="#000000" stroke="none">
<path d="M4265 2694 c-466 -14 -941 -44 -1280 -80 -1056 -112 -1917 -321
-2434 -590 -272 -141 -436 -285 -513 -450 -32 -68 -32 -71 -32 -224 0 -153 0
-156 32 -224 130 -279 531 -517 1212 -719 214 -64 292 -83 605 -151 432 -93
1044 -172 1665 -216 671 -46 1539 -46 2210 0 635 45 1093 104 1630 210 341 68
572 129 870 230 519 176 870 404 976 634 27 59 40 169 38 316 -5 292 -379 578
-1046 801 -734 244 -1671 393 -2833 449 -216 10 -921 19 -1100 14z m1180 -63
c1125 -68 1930 -195 2643 -417 617 -193 1003 -440 1092 -699 27 -79 26 -143
-6 -223 -67 -168 -226 -309 -511 -454 -1412 -720 -4863 -889 -7080 -347 -684
167 -1155 376 -1384 615 -77 81 -100 118 -128 201 -37 110 -23 202 48 309 94
142 234 251 488 378 475 238 1251 437 2118 542 442 53 689 74 1110 94 116 6
242 12 280 14 132 7 1170 -4 1330 -13z m-5279 -1566 c106 -116 319 -248 587
-364 471 -204 1343 -403 2102 -480 55 -6 165 -17 245 -25 164 -17 500 -41 790
-56 252 -13 1218 -13 1470 0 290 15 626 39 790 56 80 8 190 19 245 25 123 12
337 41 550 75 962 151 1716 407 2060 698 62 52 74 64 131 130 46 53 43 33 -5
-40 -170 -257 -600 -480 -1296 -673 -527 -146 -1351 -274 -2060 -321 -472 -31
-586 -35 -1155 -34 -565 0 -689 3 -1140 34 -1009 68 -1978 253 -2600 495 -391
152 -639 315 -761 499 -48 73 -51 93 -5 40 19 -21 42 -48 52 -59z"/>
<path d="M4205 2050 c-293 -7 -548 -21 -770 -40 -60 -5 -164 -14 -230 -20
-166 -14 -500 -56 -685 -86 -949 -153 -1471 -400 -1401 -661 94 -348 1239
-636 2801 -704 340 -15 1070 -15 1410 0 508 22 1045 74 1410 137 80 14 170 29
201 35 128 21 427 93 564 136 389 121 614 271 632 422 30 252 -493 488 -1407
635 -717 115 -1632 168 -2525 146z m940 -30 c1231 -47 2148 -197 2665 -438
120 -56 234 -143 266 -204 24 -45 16 -47 -27 -7 -274 258 -1027 444 -2224 549
-599 52 -1800 52 -2400 0 -520 -46 -909 -98 -1205 -161 -209 -44 -237 -51
-343 -80 -315 -86 -531 -181 -660 -291 -63 -55 -72 -52 -28 9 111 154 443 295
961 409 63 14 138 29 165 34 28 5 91 16 140 25 705 126 1794 188 2690 155z
m-10 -90 c434 -16 772 -41 1160 -85 497 -56 963 -152 1300 -266 112 -38 314
-137 377 -184 55 -40 117 -121 118 -150 1 -77 -144 -193 -350 -280 -647 -273
-1915 -431 -3315 -412 -1004 14 -1842 104 -2470 267 -370 96 -596 194 -723
314 -86 82 -92 122 -26 195 158 176 552 318 1219 440 709 129 1800 194 2710
161z"/>
</g>
</svg>
